<?xml version="1.0" standalone="no"?>
<!DOCTYPE svg PUBLIC "-//W3C//DTD SVG 20010904//EN"
 "http://www.w3.org/TR/2001/REC-SVG-20010904/DTD/svg10.dtd">
<svg version="1.0" xmlns="http://www.w3.org/2000/svg"
 width="242.000000pt" height="242.000000pt" viewBox="0 0 242.000000 242.000000"
 preserveAspectRatio="xMidYMid meet">
<metadata>
Created by potrace 1.14, written by Peter Selinger 2001-2017
</metadata>
<g transform="translate(0.000000,242.000000) scale(0.100000,-0.100000)"
fill="#000000" stroke="none">
<path d="M2325 1690 c-11 -5 -67 -26 -125 -46 -104 -38 -106 -39 -225 -151
-66 -62 -210 -200 -320 -307 l-200 -195 89 -1 88 0 147 143 c167 164 389 379
506 490 76 73 84 86 40 67z"/>
<path d="M1677 1453 l-129 -46 -213 -206 -214 -206 81 -3 80 -3 51 46 c65 56
484 465 477 464 -3 0 -63 -21 -133 -46z"/>
<path d="M1141 1261 c-111 -41 -141 -56 -180 -93 -25 -24 -77 -74 -116 -111
l-70 -67 90 1 90 0 165 159 c91 88 163 160 160 159 -3 0 -65 -22 -139 -48z"/>
<path d="M560 1052 l-155 -57 105 -3 104 -3 60 61 c34 33 56 60 51 59 -6 0
-80 -26 -165 -57z"/>
<path d="M90 810 c0 -40 4 -70 10 -70 6 0 10 11 10 25 0 20 5 25 24 25 45 0
72 50 44 78 -7 7 -29 12 -50 12 l-38 0 0 -70z m68 28 c3 -13 -3 -18 -22 -18
-20 0 -26 5 -26 21 0 15 5 20 22 17 13 -2 24 -11 26 -20z"/>
<path d="M275 868 c-2 -7 -13 -38 -25 -68 -24 -66 -23 -60 -5 -60 8 0 15 5 15
10 0 6 14 10 30 10 17 0 30 -4 30 -10 0 -5 7 -10 16 -10 17 0 15 10 -16 90
-18 45 -37 62 -45 38z m21 -75 c-11 -11 -19 6 -11 24 8 17 8 17 12 0 3 -10 2
-21 -1 -24z"/>
<path d="M400 810 c0 -56 3 -70 15 -70 9 0 15 9 15 25 0 14 6 25 13 25 8 0 19
-11 25 -25 6 -14 19 -25 27 -25 14 0 14 3 1 28 -12 23 -12 30 0 47 18 24 18
30 -2 49 -9 9 -32 16 -55 16 l-39 0 0 -70z m75 30 c0 -8 -10 -16 -22 -18 -18
-3 -23 2 -23 18 0 16 5 21 23 18 12 -2 22 -10 22 -18z"/>
<path d="M570 810 c0 -40 4 -70 10 -70 6 0 10 8 10 18 0 10 5 23 12 30 9 9 16
5 30 -18 10 -17 25 -30 33 -30 13 0 11 8 -10 43 -25 44 -25 44 -5 62 23 21 26
35 8 35 -7 0 -25 -14 -40 -32 l-27 -33 -1 33 c0 17 -4 32 -10 32 -6 0 -10 -30
-10 -70z"/>
<path d="M730 810 l0 -70 50 0 c28 0 50 5 50 10 0 6 -16 10 -35 10 -28 0 -35
4 -35 20 0 16 7 20 30 20 17 0 30 5 30 10 0 6 -13 10 -30 10 -23 0 -30 4 -30
20 0 16 7 20 35 20 19 0 35 5 35 10 0 6 -22 10 -50 10 l-50 0 0 -70z"/>
<path d="M870 870 c0 -5 9 -10 20 -10 18 0 20 -7 20 -60 0 -33 4 -60 10 -60 6
0 10 27 10 60 0 53 2 60 20 60 11 0 20 5 20 10 0 6 -22 10 -50 10 -27 0 -50
-4 -50 -10z"/>
<path d="M1010 870 c0 -5 7 -10 15 -10 12 0 15 -13 15 -60 0 -47 3 -60 15 -60
12 0 15 13 15 60 0 53 2 60 20 60 11 0 20 5 20 10 0 6 -22 10 -50 10 -27 0
-50 -4 -50 -10z"/>
<path d="M1161 861 c-6 -11 -11 -38 -11 -60 0 -52 32 -79 73 -60 25 11 43 51
32 69 -10 16 -55 12 -55 -5 0 -8 7 -15 16 -15 9 0 14 -6 12 -12 -3 -7 -13 -13
-24 -13 -27 0 -34 82 -8 92 11 4 22 -1 30 -12 17 -23 33 -11 18 13 -16 26 -70
28 -83 3z"/>
<path d="M1320 810 c0 -40 4 -70 10 -70 6 0 10 11 10 25 0 16 6 25 15 25 9 0
21 -11 27 -25 6 -14 17 -25 25 -25 16 0 16 5 3 29 -6 12 -5 29 2 49 16 41 -2
62 -53 62 l-39 0 0 -70z m68 28 c3 -13 -3 -18 -22 -18 -20 0 -26 5 -26 21 0
15 5 20 22 17 13 -2 24 -11 26 -20z"/>
<path d="M1480 820 c0 -52 3 -62 24 -75 29 -19 71 -4 80 29 12 43 7 106 -9
106 -10 0 -15 -15 -17 -57 -3 -51 -6 -58 -25 -61 -22 -3 -23 0 -23 57 0 48 -3
61 -15 61 -12 0 -15 -13 -15 -60z"/>
<path d="M1650 810 c0 -56 3 -70 15 -70 9 0 15 9 15 25 0 19 5 25 23 25 29 0
47 18 47 45 0 31 -19 45 -62 45 l-38 0 0 -70z m69 37 c13 -16 5 -27 -21 -27
-11 0 -18 7 -18 20 0 23 22 27 39 7z"/>
<path d="M1810 810 c0 -40 4 -70 10 -70 6 0 10 11 10 25 0 19 5 25 21 25 33 0
59 19 59 43 0 33 -19 47 -62 47 l-38 0 0 -70z m68 28 c3 -13 -3 -18 -22 -18
-20 0 -26 5 -26 21 0 15 5 20 22 17 13 -2 24 -11 26 -20z"/>
<path d="M1970 810 l0 -70 45 0 c25 0 45 5 45 10 0 6 -16 10 -35 10 -28 0 -35
4 -35 20 0 16 7 20 30 20 17 0 30 5 30 10 0 6 -13 10 -30 10 -23 0 -30 4 -30
20 0 16 7 20 35 20 19 0 35 5 35 10 0 6 -20 10 -45 10 l-45 0 0 -70z"/>
<path d="M2120 810 c0 -56 3 -70 15 -70 11 0 15 12 15 43 l1 42 25 -42 c39
-65 54 -57 54 27 0 56 -3 70 -15 70 -11 0 -15 -11 -15 -42 l0 -43 -28 42 c-40
63 -52 56 -52 -27z"/>
</g>
</svg>
