<svg version="1.1" id="Ebene_1" xmlns="http://www.w3.org/2000/svg" xmlns:xlink="http://www.w3.org/1999/xlink" x="0px" y="0px"
	 viewBox="0 0 455.28 43.55" style="enable-background:new 0 0 455.28 43.55;" xml:space="preserve">
<g>
	<path d="M22.72,42.9L35.67,8.12V42.9h5.24V0.65h-7.48L20.54,35.37L7.71,0.65H0V42.9h5.3V8.12L18.19,42.9H22.72L22.72,42.9z
		 M51.73,0.65V42.9h27.6v-4.94H57.32V23.54h18.66V18.6H57.32V5.59h22.01V0.65H51.73L51.73,0.65z M93.87,0.65h-5.65V42.9h5.65V0.65
		L93.87,0.65z M100.23,34.19c2.88,5.71,9.89,9.36,17.18,9.36c8.36,0,15.36-5,15.36-12.89c0-8.95-7.71-10.42-14.71-12.06
		c-5.94-1.41-9.89-2.35-9.89-6.83c0-4.06,3.71-6.89,8.83-6.89c5.47,0,8.83,2.77,11.01,6.83l4.3-3.41c-2.53-4.77-7.83-8.3-15.18-8.3
		c-8,0-14.42,4.83-14.42,12.24c0,7.95,6.59,9.77,13.24,11.36c6.41,1.53,11.3,2.41,11.3,7.53c0,4.83-4.24,7.53-9.71,7.53
		s-10.24-2.94-12.89-8L100.23,34.19L100.23,34.19z M170.14,5.59V0.65h-34.25v4.94h14.3V42.9h5.65V5.59H170.14L170.14,5.59z
		 M176.68,0.65V42.9h27.6v-4.94h-22.01V23.54h18.66V18.6h-18.66V5.59h22.01V0.65H176.68L176.68,0.65z M218.22,25.19h8.18
		l11.36,17.71h6.47l-11.71-18.01c6.71-1.12,10.83-5.24,10.83-12.01c0-8.06-5.71-12.24-14.65-12.24h-16.13V42.9h5.65V25.19
		L218.22,25.19z M218.22,20.3V5.53h10.18c6,0,9.36,2.59,9.36,7.36s-3.35,7.42-9.36,7.42H218.22L218.22,20.3z M271.66,0.65
		l-7.3,29.31l-7.36-29.31h-9l11.36,42.26h8.48l7.47-28.43l7.47,28.43h8.48l11.3-42.26h-8.71l-7.41,29.31l-7.3-29.31H271.66
		L271.66,0.65z M308.21,0.65V42.9h29.19v-7.48h-20.66V24.95h17.3v-7.42h-17.3V8.12h20.66V0.65H308.21L308.21,0.65z M353.47,27.19
		h5.89l9.77,15.71h9.89l-10.53-16.54c5.94-1.71,9.42-6,9.42-12.42c0-8.71-6.06-13.3-15.77-13.3h-17.3V42.9h8.65V27.19L353.47,27.19z
		 M353.47,19.95V8h8.18c5.06,0,7.65,2.18,7.65,6c0,3.77-2.59,5.94-7.65,5.94H353.47L353.47,19.95z M393.78,0.65h-8.65V42.9h8.65
		V30.78l4.88-5.53l12.42,17.66h10.12l-16.83-24.19l15.83-18.07h-10.12l-16.3,19.19V0.65L393.78,0.65z M426.09,0.65V42.9h29.19v-7.48
		h-20.66V24.95h17.3v-7.42h-17.3V8.12h20.66V0.65H426.09L426.09,0.65z"/>
</g>
</svg>
